<svg width="16" height="16" viewBox="0 0 16 16" fill="none" xmlns="http://www.w3.org/2000/svg">
<path d="M14.7936 11.75L9.29983 2.24996C9.16831 2.02148 8.97889 1.8317 8.75066 1.69973C8.52243 1.56777 8.26346 1.49829 7.99983 1.49829C7.7362 1.49829 7.47722 1.56777 7.24899 1.69973C7.02077 1.8317 6.83135 2.02148 6.69983 2.24996L1.20608 11.75C1.07262 11.9773 1.00169 12.2359 1.0005 12.4995C0.999313 12.7631 1.0679 13.0223 1.1993 13.2508C1.3307 13.4793 1.52023 13.669 1.74864 13.8006C1.97706 13.9322 2.23623 14.0009 2.49983 14H13.4998C13.7634 14.0009 14.0226 13.9322 14.251 13.8006C14.4794 13.669 14.669 13.4793 14.8004 13.2508C14.9318 13.0223 15.0003 12.7631 14.9992 12.4995C14.998 12.2359 14.927 11.9773 14.7936 11.75ZM7.49983 6.49996C7.49983 6.36735 7.55251 6.24017 7.64627 6.14641C7.74004 6.05264 7.86722 5.99996 7.99983 5.99996C8.13244 5.99996 8.25961 6.05264 8.35338 6.14641C8.44715 6.24017 8.49983 6.36735 8.49983 6.49996V8.99996C8.49983 9.13257 8.44715 9.25975 8.35338 9.35351C8.25961 9.44728 8.13244 9.49996 7.99983 9.49996C7.86722 9.49996 7.74004 9.44728 7.64627 9.35351C7.55251 9.25975 7.49983 9.13257 7.49983 8.99996V6.49996ZM7.99983 12C7.85149 12 7.70649 11.956 7.58315 11.8736C7.45981 11.7912 7.36368 11.674 7.30692 11.537C7.25015 11.3999 7.2353 11.2491 7.26424 11.1036C7.29318 10.9582 7.36461 10.8245 7.4695 10.7196C7.57439 10.6147 7.70802 10.5433 7.85351 10.5144C7.99899 10.4854 8.14979 10.5003 8.28684 10.5571C8.42388 10.6138 8.54102 10.7099 8.62343 10.8333C8.70584 10.9566 8.74983 11.1016 8.74983 11.25C8.74983 11.4489 8.67081 11.6396 8.53016 11.7803C8.3895 11.9209 8.19874 12 7.99983 12Z" fill="black"/>
</svg>
