<svg width="1080" height="1920" viewBox="0 0 1080 1920" fill="none" xmlns="http://www.w3.org/2000/svg">
  <rect width="1080" height="1920" fill="#1A1C21"/>
  <g opacity="0.55" stroke="#2B3037" stroke-width="2" fill="none">
    <path d="M-120 150 C 120 260, 340 420, 520 620 C 760 900, 960 1180, 1280 1380"/>
    <path d="M-160 220 C 120 340, 320 520, 520 740 C 760 1040, 980 1280, 1340 1500"/>
    <path d="M-200 300 C 100 420, 320 600, 520 860 C 740 1160, 1000 1400, 1380 1650"/>
    <path d="M-240 380 C 80 500, 300 700, 520 980 C 760 1280, 1040 1540, 1420 1780"/>
    <path d="M-280 460 C 40 600, 280 800, 520 1100 C 780 1420, 1080 1700, 1460 1900"/>
    <path d="M-320 540 C 0 680, 260 900, 520 1220 C 800 1560, 1120 1860, 1500 2020"/>
  </g>
</svg>
