<svg width="32" height="32" viewBox="0 0 32 32" fill="none" xmlns="http://www.w3.org/2000/svg">
<path d="M16.001 3C13.7432 2.99983 11.5244 3.58766 9.56285 4.70562C7.60133 5.82357 5.96477 7.43311 4.81432 9.37575C3.66387 11.3184 3.03919 13.5272 3.00178 15.7846C2.96438 18.042 3.51553 20.2703 4.60099 22.25L3.53849 26C3.43937 26.3417 3.4338 26.7038 3.52235 27.0484C3.61091 27.393 3.79035 27.7075 4.04193 27.9591C4.29352 28.2106 4.60803 28.3901 4.95263 28.4786C5.29722 28.5672 5.65928 28.5616 6.00099 28.4625L9.75099 27.4C11.4888 28.3525 13.4215 28.8951 15.4011 28.9862C17.3808 29.0774 19.3551 28.7148 21.1732 27.926C22.9912 27.1373 24.6049 25.9433 25.8908 24.4354C27.1767 22.9275 28.1009 21.1456 28.5926 19.2258C29.0844 17.306 29.1307 15.2992 28.728 13.3588C28.3254 11.4183 27.4845 9.59563 26.2695 8.02999C25.0545 6.46435 23.4977 5.19721 21.7179 4.32542C19.9382 3.45363 17.9828 3.00027 16.001 3ZM19.0135 24H19.001C16.0825 23.9967 13.2846 22.835 11.2221 20.7701C9.15951 18.7052 8.00099 15.906 8.00099 12.9875C8.0043 11.7962 8.47986 10.6548 9.32342 9.8136C10.167 8.97238 11.3097 8.5 12.501 8.5C12.8285 8.50072 13.1499 8.58776 13.4331 8.75235C13.7162 8.91694 13.9509 9.15327 14.1135 9.4375L15.576 12C15.7526 12.3069 15.8435 12.6556 15.8391 13.0097C15.8347 13.3637 15.7352 13.7101 15.551 14.0125L14.6635 15.5C15.1097 16.2588 15.7422 16.8913 16.501 17.3375L17.9885 16.45C18.2909 16.2658 18.6373 16.1663 18.9913 16.1619C19.3454 16.1575 19.6941 16.2484 20.001 16.425L22.5635 17.8875C22.8477 18.0501 23.084 18.2848 23.2486 18.5679C23.4132 18.851 23.5003 19.1725 23.501 19.5C23.501 20.6913 23.0286 21.834 22.1874 22.6776C21.3462 23.5211 20.2048 23.9967 19.0135 24Z" fill="black"/>
<path d="M17.0635 19.3375C16.9244 19.4188 16.7679 19.4658 16.607 19.4745C16.4462 19.4832 16.2855 19.4534 16.1385 19.3875C14.5666 18.6908 13.3102 17.4343 12.6135 15.8625C12.5476 15.7155 12.5178 15.5548 12.5265 15.3939C12.5352 15.2331 12.5822 15.0766 12.6635 14.9375L13.8385 12.9875L12.426 10.5C11.7772 10.5163 11.1604 10.7856 10.7073 11.2503C10.2543 11.715 10.0008 12.3385 10.001 12.9875C9.99934 14.1704 10.2309 15.3421 10.6825 16.4355C11.134 17.5289 11.7967 18.5225 12.6326 19.3595C13.4685 20.1966 14.4612 20.8606 15.5539 21.3137C16.6467 21.7668 17.818 22 19.001 22H19.0135C19.6625 22.0002 20.2859 21.7467 20.7507 21.2937C21.2154 20.8406 21.4847 20.2238 21.501 19.575L19.0135 18.1625L17.0635 19.3375Z" fill="black"/>
</svg>
